<mxfile host="Electron" agent="Mozilla/5.0 (Macintosh; Intel Mac OS X 10_15_7) AppleWebKit/537.36 (KHTML, like Gecko) draw.io/26.0.9 Chrome/128.0.6613.186 Electron/32.2.5 Safari/537.36" version="26.0.9">
  <diagram name="Call Graph" id="bZzdMbxiT7RVDjM0Y089">
    <mxGraphModel dx="1976" dy="1171" grid="1" gridSize="10" guides="1" tooltips="1" connect="1" arrows="1" fold="1" page="1" pageScale="1" pageWidth="1169" pageHeight="827" math="0" shadow="0">
      <root>
        <mxCell id="0" />
        <mxCell id="1" parent="0" />
        <mxCell id="_Fr6UsdRuGlbkoU90LTb-38" value="main()" style="rounded=1;whiteSpace=wrap;html=1;fillColor=#dae8fc;strokeColor=#6c8ebf;" vertex="1" parent="1">
          <mxGeometry x="500" y="40" width="120" height="40" as="geometry" />
        </mxCell>
        <mxCell id="_Fr6UsdRuGlbkoU90LTb-39" value="initialize()" style="rounded=1;whiteSpace=wrap;html=1;fillColor=#d5e8d4;strokeColor=#82b366;" vertex="1" parent="1">
          <mxGeometry x="300" y="120" width="120" height="40" as="geometry" />
        </mxCell>
        <mxCell id="_Fr6UsdRuGlbkoU90LTb-40" value="processData()" style="rounded=1;whiteSpace=wrap;html=1;fillColor=#d5e8d4;strokeColor=#82b366;" vertex="1" parent="1">
          <mxGeometry x="500" y="120" width="120" height="40" as="geometry" />
        </mxCell>
        <mxCell id="_Fr6UsdRuGlbkoU90LTb-41" value="cleanup()" style="rounded=1;whiteSpace=wrap;html=1;fillColor=#d5e8d4;strokeColor=#82b366;" vertex="1" parent="1">
          <mxGeometry x="700" y="120" width="120" height="40" as="geometry" />
        </mxCell>
        <mxCell id="_Fr6UsdRuGlbkoU90LTb-42" value="loadConfig()" style="rounded=1;whiteSpace=wrap;html=1;fillColor=#fff2cc;strokeColor=#d6b656;" vertex="1" parent="1">
          <mxGeometry x="200" y="200" width="120" height="40" as="geometry" />
        </mxCell>
        <mxCell id="_Fr6UsdRuGlbkoU90LTb-43" value="setupEnvironment()" style="rounded=1;whiteSpace=wrap;html=1;fillColor=#fff2cc;strokeColor=#d6b656;" vertex="1" parent="1">
          <mxGeometry x="380" y="200" width="120" height="40" as="geometry" />
        </mxCell>
        <mxCell id="_Fr6UsdRuGlbkoU90LTb-44" value="parseInput()" style="rounded=1;whiteSpace=wrap;html=1;fillColor=#fff2cc;strokeColor=#d6b656;" vertex="1" parent="1">
          <mxGeometry x="420" y="200" width="120" height="40" as="geometry" />
        </mxCell>
        <mxCell id="_Fr6UsdRuGlbkoU90LTb-45" value="transform()" style="rounded=1;whiteSpace=wrap;html=1;fillColor=#fff2cc;strokeColor=#d6b656;" vertex="1" parent="1">
          <mxGeometry x="580" y="200" width="120" height="40" as="geometry" />
        </mxCell>
        <mxCell id="_Fr6UsdRuGlbkoU90LTb-46" value="freeResources()" style="rounded=1;whiteSpace=wrap;html=1;fillColor=#fff2cc;strokeColor=#d6b656;" vertex="1" parent="1">
          <mxGeometry x="700" y="200" width="120" height="40" as="geometry" />
        </mxCell>
        <mxCell id="_Fr6UsdRuGlbkoU90LTb-47" value="readFile()" style="rounded=1;whiteSpace=wrap;html=1;fillColor=#f8cecc;strokeColor=#b85450;" vertex="1" parent="1">
          <mxGeometry x="150" y="280" width="120" height="40" as="geometry" />
        </mxCell>
        <mxCell id="_Fr6UsdRuGlbkoU90LTb-48" value="validateConfig()" style="rounded=1;whiteSpace=wrap;html=1;fillColor=#f8cecc;strokeColor=#b85450;" vertex="1" parent="1">
          <mxGeometry x="250" y="280" width="120" height="40" as="geometry" />
        </mxCell>
        <mxCell id="_Fr6UsdRuGlbkoU90LTb-49" value="initLogger()" style="rounded=1;whiteSpace=wrap;html=1;fillColor=#f8cecc;strokeColor=#b85450;" vertex="1" parent="1">
          <mxGeometry x="380" y="280" width="120" height="40" as="geometry" />
        </mxCell>
        <mxCell id="_Fr6UsdRuGlbkoU90LTb-50" value="tokenize()" style="rounded=1;whiteSpace=wrap;html=1;fillColor=#f8cecc;strokeColor=#b85450;" vertex="1" parent="1">
          <mxGeometry x="420" y="280" width="120" height="40" as="geometry" />
        </mxCell>
        <mxCell id="_Fr6UsdRuGlbkoU90LTb-51" value="validate()" style="rounded=1;whiteSpace=wrap;html=1;fillColor=#f8cecc;strokeColor=#b85450;" vertex="1" parent="1">
          <mxGeometry x="520" y="280" width="120" height="40" as="geometry" />
        </mxCell>
        <mxCell id="_Fr6UsdRuGlbkoU90LTb-52" value="applyRules()" style="rounded=1;whiteSpace=wrap;html=1;fillColor=#f8cecc;strokeColor=#b85450;" vertex="1" parent="1">
          <mxGeometry x="580" y="280" width="120" height="40" as="geometry" />
        </mxCell>
        <mxCell id="_Fr6UsdRuGlbkoU90LTb-53" value="closeHandles()" style="rounded=1;whiteSpace=wrap;html=1;fillColor=#f8cecc;strokeColor=#b85450;" vertex="1" parent="1">
          <mxGeometry x="700" y="280" width="120" height="40" as="geometry" />
        </mxCell>
        <mxCell id="_Fr6UsdRuGlbkoU90LTb-54" value="parseJSON()" style="rounded=1;whiteSpace=wrap;html=1;fillColor=#e1d5e7;strokeColor=#9673a6;" vertex="1" parent="1">
          <mxGeometry x="250" y="360" width="120" height="40" as="geometry" />
        </mxCell>
        <mxCell id="_Fr6UsdRuGlbkoU90LTb-55" value="split()" style="rounded=1;whiteSpace=wrap;html=1;fillColor=#e1d5e7;strokeColor=#9673a6;" vertex="1" parent="1">
          <mxGeometry x="420" y="360" width="120" height="40" as="geometry" />
        </mxCell>
        <mxCell id="_Fr6UsdRuGlbkoU90LTb-56" value="formatOutput()" style="rounded=1;whiteSpace=wrap;html=1;fillColor=#e1d5e7;strokeColor=#9673a6;" vertex="1" parent="1">
          <mxGeometry x="580" y="360" width="120" height="40" as="geometry" />
        </mxCell>
        <mxCell id="_Fr6UsdRuGlbkoU90LTb-57" style="edgeStyle=orthogonalEdgeStyle;rounded=0;orthogonalLoop=1;jettySize=auto;html=1;exitX=0.25;exitY=1;exitDx=0;exitDy=0;entryX=0.5;entryY=0;entryDx=0;entryDy=0;" edge="1" parent="1" source="_Fr6UsdRuGlbkoU90LTb-38" target="_Fr6UsdRuGlbkoU90LTb-39">
          <mxGeometry relative="1" as="geometry" />
        </mxCell>
        <mxCell id="_Fr6UsdRuGlbkoU90LTb-58" style="edgeStyle=orthogonalEdgeStyle;rounded=0;orthogonalLoop=1;jettySize=auto;html=1;exitX=0.5;exitY=1;exitDx=0;exitDy=0;entryX=0.5;entryY=0;entryDx=0;entryDy=0;" edge="1" parent="1" source="_Fr6UsdRuGlbkoU90LTb-38" target="_Fr6UsdRuGlbkoU90LTb-40">
          <mxGeometry relative="1" as="geometry" />
        </mxCell>
        <mxCell id="_Fr6UsdRuGlbkoU90LTb-59" style="edgeStyle=orthogonalEdgeStyle;rounded=0;orthogonalLoop=1;jettySize=auto;html=1;exitX=0.75;exitY=1;exitDx=0;exitDy=0;entryX=0.5;entryY=0;entryDx=0;entryDy=0;" edge="1" parent="1" source="_Fr6UsdRuGlbkoU90LTb-38" target="_Fr6UsdRuGlbkoU90LTb-41">
          <mxGeometry relative="1" as="geometry" />
        </mxCell>
        <mxCell id="_Fr6UsdRuGlbkoU90LTb-60" style="edgeStyle=orthogonalEdgeStyle;rounded=0;orthogonalLoop=1;jettySize=auto;html=1;exitX=0.25;exitY=1;exitDx=0;exitDy=0;entryX=0.5;entryY=0;entryDx=0;entryDy=0;" edge="1" parent="1" source="_Fr6UsdRuGlbkoU90LTb-39" target="_Fr6UsdRuGlbkoU90LTb-42">
          <mxGeometry relative="1" as="geometry" />
        </mxCell>
        <mxCell id="_Fr6UsdRuGlbkoU90LTb-61" style="edgeStyle=orthogonalEdgeStyle;rounded=0;orthogonalLoop=1;jettySize=auto;html=1;exitX=0.75;exitY=1;exitDx=0;exitDy=0;entryX=0.5;entryY=0;entryDx=0;entryDy=0;" edge="1" parent="1" source="_Fr6UsdRuGlbkoU90LTb-39" target="_Fr6UsdRuGlbkoU90LTb-43">
          <mxGeometry relative="1" as="geometry" />
        </mxCell>
        <mxCell id="_Fr6UsdRuGlbkoU90LTb-62" style="edgeStyle=orthogonalEdgeStyle;rounded=0;orthogonalLoop=1;jettySize=auto;html=1;exitX=0.25;exitY=1;exitDx=0;exitDy=0;entryX=0.5;entryY=0;entryDx=0;entryDy=0;" edge="1" parent="1" source="_Fr6UsdRuGlbkoU90LTb-40" target="_Fr6UsdRuGlbkoU90LTb-44">
          <mxGeometry relative="1" as="geometry" />
        </mxCell>
        <mxCell id="_Fr6UsdRuGlbkoU90LTb-63" style="edgeStyle=orthogonalEdgeStyle;rounded=0;orthogonalLoop=1;jettySize=auto;html=1;exitX=0.75;exitY=1;exitDx=0;exitDy=0;entryX=0.5;entryY=0;entryDx=0;entryDy=0;" edge="1" parent="1" source="_Fr6UsdRuGlbkoU90LTb-40" target="_Fr6UsdRuGlbkoU90LTb-45">
          <mxGeometry relative="1" as="geometry" />
        </mxCell>
        <mxCell id="_Fr6UsdRuGlbkoU90LTb-64" style="edgeStyle=orthogonalEdgeStyle;rounded=0;orthogonalLoop=1;jettySize=auto;html=1;exitX=0.5;exitY=1;exitDx=0;exitDy=0;entryX=0.5;entryY=0;entryDx=0;entryDy=0;" edge="1" parent="1" source="_Fr6UsdRuGlbkoU90LTb-41" target="_Fr6UsdRuGlbkoU90LTb-46">
          <mxGeometry relative="1" as="geometry" />
        </mxCell>
        <mxCell id="_Fr6UsdRuGlbkoU90LTb-65" style="edgeStyle=orthogonalEdgeStyle;rounded=0;orthogonalLoop=1;jettySize=auto;html=1;exitX=0.25;exitY=1;exitDx=0;exitDy=0;entryX=0.5;entryY=0;entryDx=0;entryDy=0;" edge="1" parent="1" source="_Fr6UsdRuGlbkoU90LTb-42" target="_Fr6UsdRuGlbkoU90LTb-47">
          <mxGeometry relative="1" as="geometry" />
        </mxCell>
        <mxCell id="_Fr6UsdRuGlbkoU90LTb-66" style="edgeStyle=orthogonalEdgeStyle;rounded=0;orthogonalLoop=1;jettySize=auto;html=1;exitX=0.75;exitY=1;exitDx=0;exitDy=0;entryX=0.5;entryY=0;entryDx=0;entryDy=0;" edge="1" parent="1" source="_Fr6UsdRuGlbkoU90LTb-42" target="_Fr6UsdRuGlbkoU90LTb-48">
          <mxGeometry relative="1" as="geometry" />
        </mxCell>
        <mxCell id="_Fr6UsdRuGlbkoU90LTb-67" style="edgeStyle=orthogonalEdgeStyle;rounded=0;orthogonalLoop=1;jettySize=auto;html=1;exitX=0.5;exitY=1;exitDx=0;exitDy=0;entryX=0.5;entryY=0;entryDx=0;entryDy=0;" edge="1" parent="1" source="_Fr6UsdRuGlbkoU90LTb-43" target="_Fr6UsdRuGlbkoU90LTb-49">
          <mxGeometry relative="1" as="geometry" />
        </mxCell>
        <mxCell id="_Fr6UsdRuGlbkoU90LTb-68" style="edgeStyle=orthogonalEdgeStyle;rounded=0;orthogonalLoop=1;jettySize=auto;html=1;exitX=0.5;exitY=1;exitDx=0;exitDy=0;entryX=0.5;entryY=0;entryDx=0;entryDy=0;" edge="1" parent="1" source="_Fr6UsdRuGlbkoU90LTb-44" target="_Fr6UsdRuGlbkoU90LTb-50">
          <mxGeometry relative="1" as="geometry" />
        </mxCell>
        <mxCell id="_Fr6UsdRuGlbkoU90LTb-69" style="edgeStyle=orthogonalEdgeStyle;rounded=0;orthogonalLoop=1;jettySize=auto;html=1;exitX=0.75;exitY=1;exitDx=0;exitDy=0;entryX=0.5;entryY=0;entryDx=0;entryDy=0;" edge="1" parent="1" source="_Fr6UsdRuGlbkoU90LTb-44" target="_Fr6UsdRuGlbkoU90LTb-51">
          <mxGeometry relative="1" as="geometry" />
        </mxCell>
        <mxCell id="_Fr6UsdRuGlbkoU90LTb-70" style="edgeStyle=orthogonalEdgeStyle;rounded=0;orthogonalLoop=1;jettySize=auto;html=1;exitX=0.5;exitY=1;exitDx=0;exitDy=0;entryX=0.5;entryY=0;entryDx=0;entryDy=0;" edge="1" parent="1" source="_Fr6UsdRuGlbkoU90LTb-45" target="_Fr6UsdRuGlbkoU90LTb-52">
          <mxGeometry relative="1" as="geometry" />
        </mxCell>
        <mxCell id="_Fr6UsdRuGlbkoU90LTb-71" style="edgeStyle=orthogonalEdgeStyle;rounded=0;orthogonalLoop=1;jettySize=auto;html=1;exitX=0.5;exitY=1;exitDx=0;exitDy=0;entryX=0.5;entryY=0;entryDx=0;entryDy=0;" edge="1" parent="1" source="_Fr6UsdRuGlbkoU90LTb-46" target="_Fr6UsdRuGlbkoU90LTb-53">
          <mxGeometry relative="1" as="geometry" />
        </mxCell>
        <mxCell id="_Fr6UsdRuGlbkoU90LTb-72" style="edgeStyle=orthogonalEdgeStyle;rounded=0;orthogonalLoop=1;jettySize=auto;html=1;exitX=0.5;exitY=1;exitDx=0;exitDy=0;entryX=0.5;entryY=0;entryDx=0;entryDy=0;" edge="1" parent="1" source="_Fr6UsdRuGlbkoU90LTb-48" target="_Fr6UsdRuGlbkoU90LTb-54">
          <mxGeometry relative="1" as="geometry" />
        </mxCell>
        <mxCell id="_Fr6UsdRuGlbkoU90LTb-73" style="edgeStyle=orthogonalEdgeStyle;rounded=0;orthogonalLoop=1;jettySize=auto;html=1;exitX=0.5;exitY=1;exitDx=0;exitDy=0;entryX=0.5;entryY=0;entryDx=0;entryDy=0;" edge="1" parent="1" source="_Fr6UsdRuGlbkoU90LTb-50" target="_Fr6UsdRuGlbkoU90LTb-55">
          <mxGeometry relative="1" as="geometry" />
        </mxCell>
        <mxCell id="_Fr6UsdRuGlbkoU90LTb-74" style="edgeStyle=orthogonalEdgeStyle;rounded=0;orthogonalLoop=1;jettySize=auto;html=1;exitX=0.5;exitY=1;exitDx=0;exitDy=0;entryX=0.5;entryY=0;entryDx=0;entryDy=0;" edge="1" parent="1" source="_Fr6UsdRuGlbkoU90LTb-52" target="_Fr6UsdRuGlbkoU90LTb-56">
          <mxGeometry relative="1" as="geometry" />
        </mxCell>
      </root>
    </mxGraphModel>
  </diagram>
</mxfile>
